<svg width="16" height="16" viewBox="0 0 16 16" fill="none" xmlns="http://www.w3.org/2000/svg">
<g id="Frame" clip-path="url(#clip0_127_1083)">
<path id="Vector" d="M3.3335 9.99998C2.71224 9.99998 2.40162 9.99998 2.15658 9.89851C1.82988 9.76318 1.57032 9.50358 1.43499 9.17691C1.3335 8.93185 1.3335 8.62125 1.3335 7.99998V3.46665C1.3335 2.71991 1.3335 2.34654 1.47882 2.06133C1.60665 1.81044 1.81062 1.60647 2.06151 1.47864C2.34672 1.33331 2.7201 1.33331 3.46683 1.33331H8.00016C8.62143 1.33331 8.93203 1.33331 9.1771 1.43481C9.50376 1.57013 9.76336 1.8297 9.8987 2.1564C10.0002 2.40143 10.0002 2.71206 10.0002 3.33331M8.1335 14.6666H12.5335C13.2802 14.6666 13.6536 14.6666 13.9388 14.5213C14.1897 14.3935 14.3937 14.1895 14.5215 13.9386C14.6668 13.6534 14.6668 13.28 14.6668 12.5333V8.13331C14.6668 7.38658 14.6668 7.01318 14.5215 6.72798C14.3937 6.47711 14.1897 6.27313 13.9388 6.14531C13.6536 5.99998 13.2802 5.99998 12.5335 5.99998H8.1335C7.38676 5.99998 7.01336 5.99998 6.72816 6.14531C6.47729 6.27313 6.27332 6.47711 6.14549 6.72798C6.00016 7.01318 6.00016 7.38658 6.00016 8.13331V12.5333C6.00016 13.28 6.00016 13.6534 6.14549 13.9386C6.27332 14.1895 6.47729 14.3935 6.72816 14.5213C7.01336 14.6666 7.38676 14.6666 8.1335 14.6666Z" stroke="#151515" stroke-linecap="round" stroke-linejoin="round"/>
</g>
<defs>
<clipPath id="clip0_127_1083">
<rect width="16" height="16" fill="white"/>
</clipPath>
</defs>
</svg>
