<svg width="35" height="35" viewBox="0 0 35 35" fill="none" xmlns="http://www.w3.org/2000/svg">
<path d="M10.2929 7.23625C11.5165 7.23625 12.619 7.74083 13.4123 8.55021C11.48 9.86271 10.2069 12.0779 10.2069 14.5848C10.2069 15.0631 10.2594 15.5283 10.3483 15.9819C10.3294 15.9819 10.3119 15.9877 10.2929 15.9877C7.87646 15.9877 5.91792 14.0292 5.91792 11.6127C5.91792 9.19625 7.87646 7.23625 10.2929 7.23625ZM24.7917 7.29167C23.5652 7.29167 22.4598 7.80063 21.665 8.61292C23.5506 9.93271 24.7917 12.1115 24.7917 14.5833C24.7917 15.0777 24.7406 15.5604 24.6458 16.0271C24.6954 16.0285 24.7421 16.0417 24.7917 16.0417C27.2081 16.0417 29.1667 14.0831 29.1667 11.6667C29.1667 9.25021 27.2081 7.29167 24.7917 7.29167ZM17.5 21.875C14.805 21.875 12.5212 23.5696 11.7337 25.9117C11.4348 26.7998 12.164 27.7083 13.1337 27.7083H21.8663C22.836 27.7083 23.5638 26.7998 23.2663 25.9117C22.4788 23.5696 20.195 21.875 17.5 21.875ZM17.5 18.9583C19.9165 18.9583 21.875 16.9998 21.875 14.5833C21.875 12.1669 19.9165 10.2083 17.5 10.2083C15.0835 10.2083 13.125 12.1669 13.125 14.5833C13.125 16.9998 15.0835 18.9583 17.5 18.9583ZM9.47917 30.625H8.02083C6.01125 30.625 4.375 28.9902 4.375 26.9792V25.5208C4.375 24.3133 3.39646 23.3333 2.1875 23.3333C0.978542 23.3333 0 24.3133 0 25.5208V26.9792C0 31.4008 3.59771 35 8.02083 35H9.47917C10.6881 35 11.6667 34.02 11.6667 32.8125C11.6667 31.605 10.6881 30.625 9.47917 30.625ZM32.8125 23.3333C31.6035 23.3333 30.625 24.3133 30.625 25.5208V26.9792C30.625 28.9902 28.9888 30.625 26.9792 30.625H25.5208C24.3119 30.625 23.3333 31.605 23.3333 32.8125C23.3333 34.02 24.3119 35 25.5208 35H26.9792C31.4023 35 35 31.4008 35 26.9792V25.5208C35 24.3133 34.0215 23.3333 32.8125 23.3333ZM26.9792 0H25.5208C24.3119 0 23.3333 0.98 23.3333 2.1875C23.3333 3.395 24.3119 4.375 25.5208 4.375H26.9792C28.9888 4.375 30.625 6.00979 30.625 8.02083V9.47917C30.625 10.6867 31.6035 11.6667 32.8125 11.6667C34.0215 11.6667 35 10.6867 35 9.47917V8.02083C35 3.59917 31.4023 0 26.9792 0ZM2.1875 11.6667C3.39646 11.6667 4.375 10.6867 4.375 9.47917V8.02083C4.375 6.00979 6.01125 4.375 8.02083 4.375H9.47917C10.6881 4.375 11.6667 3.395 11.6667 2.1875C11.6667 0.98 10.6881 0 9.47917 0H8.02083C3.59771 0 0 3.59917 0 8.02083V9.47917C0 10.6867 0.978542 11.6667 2.1875 11.6667ZM21.5352 19.8917C23.5608 20.8833 25.1577 22.6129 25.9481 24.7917H29.1565C30.1263 24.7917 30.854 23.8831 30.5565 22.995C29.769 20.6529 27.4852 18.9583 24.7902 18.9583C23.5871 18.9583 22.4758 19.3098 21.5338 19.8917H21.5352ZM4.44208 22.9935C4.14313 23.8817 4.87229 24.7902 5.84208 24.7902H9.05042C9.84083 22.6129 11.4392 20.8819 13.4633 19.8902C12.5213 19.3083 11.41 18.9569 10.2069 18.9569C7.51188 18.9569 5.22958 20.6515 4.44208 22.9935Z" fill="#167EE6"/>
</svg>
