<svg width="35" height="35" viewBox="0 0 35 35" fill="none" xmlns="http://www.w3.org/2000/svg">
<g clip-path="url(#clip0_127_921)">
<path d="M24.7917 25.5208C24.7917 26.101 24.5613 26.6574 24.151 27.0676C23.7408 27.4779 23.1844 27.7083 22.6042 27.7083H12.3959C11.8158 27.7083 11.2594 27.4779 10.8491 27.0676C10.4389 26.6574 10.2084 26.101 10.2084 25.5208C10.2084 24.9407 10.4389 24.3843 10.8491 23.974C11.2594 23.5638 11.8158 23.3333 12.3959 23.3333H22.6042C23.1844 23.3333 23.7408 23.5638 24.151 23.974C24.5613 24.3843 24.7917 24.9407 24.7917 25.5208ZM32.0834 10.4373V26.9792C32.0811 29.1057 31.2353 31.1445 29.7316 32.6482C28.2279 34.1519 26.1891 34.9977 24.0626 35H10.9376C8.81104 34.9977 6.77225 34.1519 5.26855 32.6482C3.76486 31.1445 2.91906 29.1057 2.91675 26.9792V8.02083C2.91906 5.89429 3.76486 3.8555 5.26855 2.3518C6.77225 0.848108 8.81104 0.00231459 10.9376 -1.49519e-06H21.6461C22.6998 -0.00284534 23.7437 0.203335 24.7172 0.606605C25.6907 1.00988 26.5745 1.60223 27.3176 2.34937L29.734 4.76583C30.4812 5.50887 31.0735 6.39273 31.4768 7.36624C31.8801 8.33974 32.0863 9.38357 32.0834 10.4373ZM27.6865 10.2083H24.7917C24.0182 10.2083 23.2763 9.90104 22.7294 9.35406C22.1824 8.80708 21.8751 8.06521 21.8751 7.29167V4.39833C21.7978 4.3925 10.9376 4.375 10.9376 4.375C9.97065 4.375 9.04331 4.75911 8.35959 5.44284C7.67586 6.12656 7.29175 7.0539 7.29175 8.02083V26.9792C7.29175 27.9461 7.67586 28.8734 8.35959 29.5572C9.04331 30.2409 9.97065 30.625 10.9376 30.625H24.0626C25.0295 30.625 25.9568 30.2409 26.6406 29.5572C27.3243 28.8734 27.7084 27.9461 27.7084 26.9792C27.7084 26.9792 27.6909 10.2856 27.6865 10.2083ZM21.1459 13.125H13.8542C12.8873 13.125 11.96 13.5091 11.2763 14.1928C10.5925 14.8766 10.2084 15.8039 10.2084 16.7708C10.2084 17.7378 10.5925 18.6651 11.2763 19.3488C11.96 20.0326 12.8873 20.4167 13.8542 20.4167H21.1459C22.1129 20.4167 23.0402 20.0326 23.7239 19.3488C24.4076 18.6651 24.7917 17.7378 24.7917 16.7708C24.7917 15.8039 24.4076 14.8766 23.7239 14.1928C23.0402 13.5091 22.1129 13.125 21.1459 13.125Z" fill="#167EE6"/>
</g>
<defs>
<clipPath id="clip0_127_921">
<rect width="35" height="35" fill="white"/>
</clipPath>
</defs>
</svg>
