<svg width="35" height="34" viewBox="0 0 35 34" fill="none" xmlns="http://www.w3.org/2000/svg">
<path d="M6.56244 10.2083C5.89187 10.2102 5.22757 10.0791 4.60802 9.8225C3.98847 9.56592 3.42596 9.18899 2.95307 8.71355L0.729111 6.7375C0.295924 6.35073 0.0341242 5.80772 0.00130535 5.22792C-0.0149449 4.94083 0.0255101 4.65335 0.120361 4.3819C0.215211 4.11044 0.362599 3.86033 0.554111 3.64584C0.745622 3.43135 0.977505 3.25668 1.23652 3.1318C1.49554 3.00692 1.77661 2.93428 2.0637 2.91803C2.6435 2.88521 3.21259 3.08406 3.64578 3.47084L5.95578 5.53292C6.03099 5.62181 6.12363 5.69433 6.22798 5.746C6.33232 5.79767 6.44616 5.82739 6.56244 5.83334C6.75546 5.8333 6.94058 5.75673 7.07724 5.62042L12.3462 0.603755C12.7693 0.220937 13.3251 0.01856 13.8953 0.0397847C14.4655 0.0610094 15.0048 0.304156 15.3982 0.717368C15.7916 1.13058 16.008 1.68115 16.0013 2.25167C15.9945 2.82218 15.7651 3.36747 15.362 3.77126L10.1324 8.75C9.66257 9.21598 9.10537 9.58465 8.49276 9.8349C7.88015 10.0852 7.22418 10.2121 6.56244 10.2083ZM34.9999 5.10417C34.9999 4.52401 34.7695 3.96761 34.3592 3.55738C33.949 3.14714 33.3926 2.91667 32.8124 2.91667H21.1458C20.5656 2.91667 20.0092 3.14714 19.599 3.55738C19.1887 3.96761 18.9583 4.52401 18.9583 5.10417C18.9583 5.68433 19.1887 6.24073 19.599 6.65097C20.0092 7.0612 20.5656 7.29167 21.1458 7.29167H32.8124C33.3926 7.29167 33.949 7.0612 34.3592 6.65097C34.7695 6.24073 34.9999 5.68433 34.9999 5.10417ZM10.1324 20.4167L15.362 15.4379C15.7651 15.0341 15.9945 14.4888 16.0013 13.9183C16.008 13.3478 15.7916 12.7972 15.3982 12.384C15.0048 11.9708 14.4655 11.7277 13.8953 11.7065C13.3251 11.6852 12.7693 11.8876 12.3462 12.2704L7.07724 17.2871C6.9405 17.4238 6.75506 17.5006 6.56171 17.5006C6.36837 17.5006 6.18293 17.4238 6.04619 17.2871L3.73474 14.9742C3.32437 14.5638 2.76779 14.3333 2.18744 14.3333C1.6071 14.3333 1.05052 14.5638 0.640152 14.9742C0.229785 15.3845 -0.000757046 15.9411 -0.000757046 16.5215C-0.000757046 17.1018 0.229785 17.6584 0.640152 18.0688L2.95307 20.3802C3.90385 21.3304 5.19108 21.8672 6.53526 21.874C7.87945 21.8809 9.17206 21.3572 10.1324 20.4167ZM34.9999 16.7708C34.9999 16.1907 34.7695 15.6343 34.3592 15.224C33.949 14.8138 33.3926 14.5833 32.8124 14.5833H21.1458C20.5656 14.5833 20.0092 14.8138 19.599 15.224C19.1887 15.6343 18.9583 16.1907 18.9583 16.7708C18.9583 17.351 19.1887 17.9074 19.599 18.3176C20.0092 18.7279 20.5656 18.9583 21.1458 18.9583H32.8124C33.3926 18.9583 33.949 18.7279 34.3592 18.3176C34.7695 17.9074 34.9999 17.351 34.9999 16.7708ZM10.1324 32.0833L15.362 27.1046C15.7651 26.7008 15.9945 26.1555 16.0013 25.585C16.008 25.0145 15.7916 24.4639 15.3982 24.0507C15.0048 23.6375 14.4655 23.3943 13.8953 23.3731C13.3251 23.3519 12.7693 23.5543 12.3462 23.9371L7.07724 28.9538C6.94058 29.0901 6.75546 29.1666 6.56244 29.1667C6.44616 29.1607 6.33232 29.131 6.22798 29.0793C6.12363 29.0277 6.03099 28.9551 5.95578 28.8663L3.64578 26.8042C3.21259 26.4174 2.6435 26.2185 2.0637 26.2514C1.4839 26.2842 0.940885 26.546 0.554111 26.9792C0.167336 27.4124 -0.0315135 27.9814 0.00130535 28.5612C0.0341242 29.1411 0.295924 29.6841 0.729111 30.0708L2.95015 32.0469C3.90105 32.998 5.1889 33.5353 6.5338 33.5422C7.8787 33.549 9.17194 33.0247 10.1324 32.0833ZM34.9999 28.4375C34.9999 27.8573 34.7695 27.3009 34.3592 26.8907C33.949 26.4805 33.3926 26.25 32.8124 26.25H21.1458C20.5656 26.25 20.0092 26.4805 19.599 26.8907C19.1887 27.3009 18.9583 27.8573 18.9583 28.4375C18.9583 29.0177 19.1887 29.5741 19.599 29.9843C20.0092 30.3945 20.5656 30.625 21.1458 30.625H32.8124C33.3926 30.625 33.949 30.3945 34.3592 29.9843C34.7695 29.5741 34.9999 29.0177 34.9999 28.4375Z" fill="white"/>
</svg>
