<?xml version="1.0"?>
<svg xmlns="http://www.w3.org/2000/svg" width="35" height="35" viewBox="0 0 35 35" fill="none" style="background-color:transparent;">
  <rect width="35" height="35" fill="none"/>
  <g id="Components">
    <rect width="2498" height="1024" transform="translate(-124 -116)" fill="none"/>
    <g id="Selectable Button">
      <rect x="-19.5" y="-22.5" width="199" height="199" rx="19.5" stroke="#BCBCBC"/>
      <g id="Frame 20">
        <g id="target-audience 1" clip-path="url(#clip0_522_2)">
          <path id="Vector" d="M6.56251 10.2082C5.89193 10.21 5.22763 10.0789 4.60808 9.82232C3.98853 9.56573 3.42603 9.18881 2.95313 8.71336L0.729172 6.73732C0.295985 6.35055 0.0341852 5.80753 0.00136638 5.22773C-0.0148839 4.94064 0.0255711 4.65317 0.120422 4.38171C0.215272 4.11026 0.36266 3.86015 0.554172 3.64566C0.745683 3.43116 0.977566 3.25649 1.23658 3.13161C1.4956 3.00674 1.77667 2.9341 2.06376 2.91785C2.64356 2.88503 3.21265 3.08388 3.64584 3.47066L5.95584 5.53274C6.03105 5.62162 6.12369 5.69414 6.22804 5.74582C6.33239 5.79749 6.44622 5.82721 6.56251 5.83316C6.75552 5.83311 6.94064 5.75655 7.0773 5.62024L12.3463 0.603572C12.7693 0.220754 13.3252 0.0183769 13.8954 0.0396016C14.4655 0.0608263 15.0048 0.303973 15.3982 0.717185C15.7917 1.1304 16.0081 1.68097 16.0013 2.25148C15.9946 2.82199 15.7652 3.36729 15.3621 3.77107L10.1325 8.74982C9.66263 9.2158 9.10543 9.58447 8.49282 9.83472C7.88021 10.085 7.22424 10.2119 6.56251 10.2082ZM35 5.10399C35 4.52383 34.7695 3.96743 34.3593 3.55719C33.9491 3.14696 33.3927 2.91649 32.8125 2.91649H21.1458C20.5657 2.91649 20.0093 3.14696 19.599 3.55719C19.1888 3.96743 18.9583 4.52383 18.9583 5.10399C18.9583 5.68415 19.1888 6.24055 19.599 6.65078C20.0093 7.06102 20.5657 7.29149 21.1458 7.29149H32.8125C33.3927 7.29149 33.9491 7.06102 34.3593 6.65078C34.7695 6.24055 35 5.68415 35 5.10399ZM10.1325 20.4165L15.3621 15.4377C15.7652 15.034 15.9946 14.4887 16.0013 13.9181C16.0081 13.3476 15.7917 12.7971 15.3982 12.3839C15.0048 11.9706 14.4655 11.7275 13.8954 11.7063C13.3252 11.685 12.7693 11.8874 12.3463 12.2702L7.0773 17.2869C6.94056 17.4236 6.75512 17.5004 6.56178 17.5004C6.36843 17.5004 6.18299 17.4236 6.04626 17.2869L3.7348 14.974C3.32443 14.5636 2.76785 14.3331 2.18751 14.3331C1.60716 14.3331 1.05058 14.5636 0.640213 14.974C0.229846 15.3844 -0.000696011 15.9409 -0.000696011 16.5213C-0.000696011 17.1016 0.229846 17.6582 0.640213 18.0686L2.95313 20.38C3.90391 21.3302 5.19114 21.867 6.53532 21.8739C7.87951 21.8807 9.17213 21.357 10.1325 20.4165ZM35 16.7707C35 16.1905 34.7695 15.6341 34.3593 15.2239C33.9491 14.8136 33.3927 14.5832 32.8125 14.5832H21.1458C20.5657 14.5832 20.0093 14.8136 19.599 15.2239C19.1888 15.6341 18.9583 16.1905 18.9583 16.7707C18.9583 17.3508 19.1888 17.9072 19.599 18.3175C20.0093 18.7277 20.5657 18.9582 21.1458 18.9582H32.8125C33.3927 18.9582 33.9491 18.7277 34.3593 18.3175C34.7695 17.9072 35 17.3508 35 16.7707ZM10.1325 32.0832L15.3621 27.1044C15.7652 26.7006 15.9946 26.1553 16.0013 25.5848C16.0081 25.0143 15.7917 24.4637 15.3982 24.0505C15.0048 23.6373 14.4655 23.3942 13.8954 23.3729C13.3252 23.3517 12.7693 23.5541 12.3463 23.9369L7.0773 28.9536C6.94064 29.0899 6.75552 29.1664 6.56251 29.1665C6.44622 29.1605 6.33239 29.1308 6.22804 29.0791C6.12369 29.0275 6.03105 28.955 5.95584 28.8661L3.64584 26.804C3.21265 26.4172 2.64356 26.2184 2.06376 26.2512C1.48396 26.284 0.940946 26.5458 0.554172 26.979C0.167397 27.4122 -0.0314525 27.9813 0.00136638 28.5611C0.0341852 29.1409 0.295985 29.6839 0.729172 30.0707L2.95021 32.0467C3.90111 32.9978 5.18897 33.5351 6.53386 33.542C7.87876 33.5488 9.172 33.0245 10.1325 32.0832ZM35 28.4373C35 27.8572 34.7695 27.3008 34.3593 26.8905C33.9491 26.4803 33.3927 26.2498 32.8125 26.2498H21.1458C20.5657 26.2498 20.0093 26.4803 19.599 26.8905C19.1888 27.3008 18.9583 27.8572 18.9583 28.4373C18.9583 29.0175 19.1888 29.5739 19.599 29.9841C20.0093 30.3944 20.5657 30.6248 21.1458 30.6248H32.8125C33.3927 30.6248 33.9491 30.3944 34.3593 29.9841C34.7695 29.5739 35 29.0175 35 28.4373Z" fill="#005FD9"/>
        </g>
      </g>
    </g>
  </g>
  <defs>
    <clipPath id="clip0_522_2">
      <rect width="35" height="35" fill="none"/>
    </clipPath>
  </defs>
</svg>
