<svg width="35" height="35" viewBox="0 0 35 35" fill="none" xmlns="http://www.w3.org/2000/svg">
<g clip-path="url(#clip0_127_923)">
<path d="M30.1773 7.45063C26.1946 14.2275 15.6421 26.444 2.51271 28.4142C2.40188 28.4317 2.29396 28.439 2.18458 28.439C1.12 28.439 0.186667 27.6617 0.0247917 26.5767C-0.154583 25.3823 0.667917 24.2681 1.86375 24.0888C13.1512 22.3956 22.5867 11.4392 26.1348 5.67875L23.7752 4.64333C22.8054 4.2175 22.8331 2.83208 23.8204 2.44708L29.7092 0.147292C30.5827 -0.193958 31.5656 0.237708 31.9069 1.11125L34.2038 7C34.5888 7.98729 33.5883 8.94688 32.6185 8.52104L30.1773 7.45063ZM0 8.75C0 3.92438 3.92438 0 8.75 0C13.5756 0 17.5 3.92438 17.5 8.75C17.5 13.5756 13.5756 17.5 8.75 17.5C3.92438 17.5 0 13.5756 0 8.75ZM5.83333 5.83333C5.83333 7.44479 7.13854 8.75 8.75 8.75C10.3615 8.75 11.6667 7.44479 11.6667 5.83333C11.6667 4.22188 10.3615 2.91667 8.75 2.91667C7.13854 2.91667 5.83333 4.22188 5.83333 5.83333ZM4.42458 12.6292C5.49354 13.8192 7.02625 14.5833 8.75 14.5833C10.4738 14.5833 12.0065 13.8192 13.0754 12.6292C12.1742 11.181 10.5817 10.2083 8.75 10.2083C6.91833 10.2083 5.32583 11.181 4.42458 12.6292ZM32.8125 13.125C31.6035 13.125 30.625 14.105 30.625 15.3125V32.8125C30.625 34.02 31.6035 35 32.8125 35C34.0215 35 35 34.02 35 32.8125V15.3125C35 14.105 34.0215 13.125 32.8125 13.125ZM25.5208 18.9583C24.3119 18.9583 23.3333 19.9383 23.3333 21.1458V32.8125C23.3333 34.02 24.3119 35 25.5208 35C26.7298 35 27.7083 34.02 27.7083 32.8125V21.1458C27.7083 19.9383 26.7298 18.9583 25.5208 18.9583ZM18.2292 24.7917C17.0202 24.7917 16.0417 25.7717 16.0417 26.9792V32.8125C16.0417 34.02 17.0202 35 18.2292 35C19.4381 35 20.4167 34.02 20.4167 32.8125V26.9792C20.4167 25.7717 19.4381 24.7917 18.2292 24.7917ZM10.9375 29.1667C9.72854 29.1667 8.75 30.1467 8.75 31.3542V32.8125C8.75 34.02 9.72854 35 10.9375 35C12.1465 35 13.125 34.02 13.125 32.8125V31.3542C13.125 30.1467 12.1465 29.1667 10.9375 29.1667ZM1.45833 32.8125C1.45833 34.02 2.43833 35 3.64583 35C4.85333 35 5.83333 34.02 5.83333 32.8125C5.83333 31.605 4.85333 30.625 3.64583 30.625C2.43833 30.625 1.45833 31.605 1.45833 32.8125Z" fill="#167EE6"/>
</g>
<defs>
<clipPath id="clip0_127_923">
<rect width="35" height="35" fill="white"/>
</clipPath>
</defs>
</svg>
