<svg width="35" height="35" viewBox="0 0 35 35" fill="none" xmlns="http://www.w3.org/2000/svg">
<g clip-path="url(#clip0_158_8357)">
<path d="M14.3733 30.2502C11.9827 29.6638 9.80521 28.417 8.08939 26.6522C6.37357 24.8873 5.18862 22.6755 4.66983 20.2694C4.15104 17.8632 4.31934 15.3596 5.15549 13.0445C5.99164 10.7295 7.46196 8.69615 9.39855 7.1768C11.3351 5.65746 13.6599 4.71331 16.1075 4.45216C18.5551 4.19101 21.0268 4.62339 23.2403 5.69993C25.4539 6.77646 27.3201 8.45377 28.6259 10.5403C29.9317 12.6269 30.6244 15.0386 30.625 17.5C30.625 18.0802 30.8555 18.6366 31.2657 19.0468C31.6759 19.457 32.2323 19.6875 32.8125 19.6875C33.3927 19.6875 33.9491 19.457 34.3593 19.0468C34.7695 18.6366 35 18.0802 35 17.5C34.9995 14.2178 34.076 11.002 32.3349 8.21962C30.5939 5.43728 28.1054 3.20066 25.1538 1.76516C22.2022 0.329663 18.9064 -0.246836 15.6427 0.101498C12.3791 0.449833 9.2792 1.70896 6.69705 3.73509C4.1149 5.76121 2.15459 8.47266 1.03998 11.5598C-0.0746199 14.6469 -0.298586 17.9853 0.393663 21.1936C1.08591 24.402 2.66647 27.351 4.95484 29.7038C7.24321 32.0567 10.1471 33.7186 13.335 34.4998C13.5048 34.5419 13.6792 34.563 13.8542 34.5625C14.3888 34.562 14.9047 34.3656 15.3044 34.0106C15.7041 33.6556 15.96 33.1666 16.0238 32.6358C16.0875 32.105 15.9546 31.5692 15.6503 31.1297C15.3459 30.6902 14.8912 30.3773 14.3719 30.2502H14.3733Z" fill="#167EE6"/>
<path d="M34.4472 23.2444C34.037 22.8343 33.4807 22.6039 32.9006 22.6039C32.3206 22.6039 31.7643 22.8343 31.3541 23.2444L24.3759 30.2181L21.2653 26.9223C21.0663 26.7151 20.8285 26.5491 20.5654 26.4338C20.3022 26.3185 20.019 26.2561 19.7317 26.2503C19.4445 26.2445 19.159 26.2953 18.8914 26.3998C18.6238 26.5044 18.3794 26.6606 18.1722 26.8596C17.9651 27.0587 17.7992 27.2966 17.684 27.5598C17.5688 27.8229 17.5066 28.1062 17.5009 28.3935C17.4952 28.6807 17.5462 28.9662 17.6508 29.2338C17.7555 29.5013 17.9119 29.7456 18.1109 29.9527L21.8749 33.9208C22.1896 34.2541 22.5676 34.5212 22.9867 34.7065C23.4059 34.8918 23.8579 34.9916 24.3161 35H24.3701C25.278 34.997 26.1483 34.6365 26.7924 33.9967L34.4545 26.3375C34.8636 25.9263 35.0927 25.3695 35.0913 24.7894C35.0899 24.2094 34.8583 23.6536 34.4472 23.2444Z" fill="#167EE6"/>
<path d="M15.3126 10.9375V16.1219L11.8126 18.3094C11.569 18.4619 11.3579 18.6608 11.1912 18.895C11.0246 19.1291 10.9057 19.3937 10.8414 19.6738C10.7771 19.9538 10.7686 20.2438 10.8163 20.5272C10.8641 20.8106 10.9673 21.0817 11.1199 21.3252C11.2724 21.5688 11.4713 21.7799 11.7055 21.9465C11.9396 22.1132 12.2042 22.2321 12.4843 22.2964C12.7643 22.3607 13.0543 22.3692 13.3377 22.3214C13.6211 22.2737 13.8922 22.1705 14.1357 22.0179L18.3197 19.3929C18.7395 19.1299 19.0853 18.7642 19.3246 18.3305C19.564 17.8967 19.6889 17.4091 19.6876 16.9137V10.9375C19.6876 10.3573 19.4571 9.80094 19.0469 9.3907C18.6366 8.98047 18.0802 8.75 17.5001 8.75C16.9199 8.75 16.3635 8.98047 15.9533 9.3907C15.543 9.80094 15.3126 10.3573 15.3126 10.9375Z" fill="#167EE6"/>
</g>
<defs>
<clipPath id="clip0_158_8357">
<rect width="35" height="35" fill="white"/>
</clipPath>
</defs>
</svg>
